<svg xmlns="http://www.w3.org/2000/svg" viewBox="0 0 1900 1078.726"><defs><style>.a{fill:none;stroke:#d2d2d2;}.b{fill:#dedede;}</style></defs><g transform="translate(-20.061 71)"><line class="a" y1="155.882" transform="translate(710.327 823.336)"/><rect class="b" width="25.654" height="93.494" rx="12.827" transform="translate(697.18 793.458)"/><line class="a" y1="211.982" transform="translate(758.428 767.236)"/><rect class="b" width="25.654" height="72.655" rx="12.827" transform="translate(745.28 720.804)"/><line class="a" y1="269.92" transform="translate(806.529 709.298)"/><rect class="b" width="25.654" height="64.386" rx="12.827" transform="translate(793.381 685.861)"/><line class="a" y1="185.312" transform="translate(854.629 793.906)"/><rect class="b" width="25.654" height="79.079" rx="12.827" transform="translate(841.482 720.794)"/><line class="a" y1="155.882" transform="translate(902.73 823.336)"/><rect class="b" width="25.654" height="75.419" rx="12.827" transform="translate(889.582 757.561)"/><line class="a" y1="211.982" transform="translate(950.83 767.236)"/><rect class="b" width="25.654" height="80.035" rx="12.827" transform="translate(937.683 729.07)"/><line class="a" y1="257.965" transform="translate(998.931 721.253)"/><rect class="b" width="25.654" height="91.982" rx="12.827" transform="translate(985.783 703.354)"/><line class="a" y1="249.688" transform="translate(1047.032 729.53)"/><rect class="b" width="25.654" height="69.904" rx="12.827" transform="translate(1033.884 703.292)"/><line class="a" y1="292.912" transform="translate(1095.132 686.306)"/><rect class="b" width="25.654" height="74.477" rx="12.827" transform="translate(1081.984 643.542)"/><line class="a" y1="340.734" transform="translate(1143.233 638.484)"/><rect class="b" width="25.654" height="84.623" rx="12.827" transform="translate(1130.085 614.146)"/><line class="a" x1="0.373" y1="359.891" transform="translate(1190.96 619.327)"/><rect class="b" width="25.654" height="57.922" rx="12.827" transform="translate(1178.186 605.02)"/><line class="a" x1="0.236" y1="323.074" transform="translate(1239.198 656.145)"/><rect class="b" width="25.654" height="79.114" rx="12.827" transform="translate(1226.286 624.284)"/><line class="a" x1="0.751" y1="250.359" transform="translate(1286.783 728.859)"/><rect class="b" width="25.654" height="68.068" rx="12.827" transform="translate(1274.054 698.813)"/><line class="a" y1="250.374" transform="translate(1335.635 729.305)"/><rect class="b" width="25.654" height="73.567" rx="12.827" transform="translate(1322.488 662.855)"/><line class="a" y1="335.676" transform="translate(1383.735 643.542)"/><path class="b" d="M13.215,0c7.079-.051,12.777,8.01,12.726,18l-.293,57.606C25.6,85.605,19.817,93.748,12.738,93.8S-.039,85.79.012,75.8L.3,18.19C.356,8.2,6.136.053,13.215,0Z" transform="matrix(1, -0.017, 0.017, 1, 1369.68, 605.178)"/><rect class="b" width="25.477" height="64.376" rx="12.738" transform="translate(1851.91 39.325)"/><line class="a" y1="393.155" transform="translate(1431.836 586.063)"/><rect class="b" width="25.654" height="143.485" rx="12.827" transform="translate(1418.689 542.445)"/><line class="a" x1="0.205" y1="348.846" transform="translate(1479.732 630.372)"/><rect class="b" width="25.654" height="69.909" rx="12.827" transform="translate(1466.789 568.115)"/><line class="a" y1="310.845" transform="translate(1528.037 668.373)"/><path class="b" d="M12.817,0C19.9.009,25.649,9.765,25.654,21.789l.018,39.7c.006,12.024-5.733,21.765-12.817,21.755S.024,73.48.018,61.456L0,21.755C-.006,9.731,5.733-.009,12.817,0Z" transform="translate(1515.59 596.831)"/><line class="a" y1="345.332" transform="translate(1576.138 633.886)"/><rect class="b" width="25.654" height="57.939" rx="12.827" transform="translate(1562.99 585.604)"/><line class="a" y1="411.548" transform="translate(1624.239 567.67)"/><rect class="b" width="25.654" height="78.171" rx="12.827" transform="translate(1611.091 507.432)"/><line class="a" y1="485.121" transform="translate(1672.339 494.097)"/><rect class="b" width="25.654" height="86.448" rx="12.827" transform="translate(1659.192 420.984)"/><line class="a" y1="510.412" transform="translate(1720.44 468.807)"/><rect class="b" width="25.654" height="144.387" rx="12.827" transform="translate(1707.292 276.598)"/><line class="a" y1="722.393" x2="0.252" transform="translate(1768.54 256.825)"/><rect class="b" width="25.654" height="83.689" rx="12.827" transform="translate(1756.03 192.908)"/><line class="a" y1="807.002" x2="0.558" transform="translate(1816.641 172.216)"/><rect class="b" width="25.477" height="89.207" rx="12.738" transform="translate(1804.142 103.701)"/><line class="a" y1="893.45" x2="0.226" transform="translate(1864.741 85.768)"/><line class="a" y1="957.826" x2="0.531" transform="translate(1907.11 21.392)"/><rect class="b" width="25.477" height="110.325" rx="12.738" transform="translate(1894.584 -71)"/><line class="a" y1="107.746" transform="translate(33.228 899.662)"/><rect class="b" width="25.693" height="36.861" rx="12.847" transform="translate(20.061 879.011)"/><line class="a" y1="146.522" transform="translate(81.404 860.886)"/><rect class="b" width="25.693" height="50.219" rx="12.847" transform="translate(68.236 828.791)"/><line class="a" y1="186.57" transform="translate(129.579 820.839)"/><rect class="b" width="25.693" height="44.504" rx="12.847" transform="translate(116.411 804.639)"/><line class="a" y1="128.088" transform="translate(177.754 879.32)"/><rect class="b" width="25.693" height="54.66" rx="12.847" transform="translate(164.586 828.784)"/><line class="a" y1="107.746" transform="translate(225.929 899.662)"/><rect class="b" width="25.693" height="52.13" rx="12.847" transform="translate(212.761 854.198)"/><line class="a" y1="146.522" transform="translate(274.105 860.886)"/><rect class="b" width="25.693" height="55.321" rx="12.847" transform="translate(260.937 834.505)"/><line class="a" y1="178.306" transform="translate(322.28 829.102)"/><rect class="b" width="25.693" height="63.578" rx="12.847" transform="translate(309.112 816.73)"/><line class="a" y1="172.585" transform="translate(370.455 834.823)"/><rect class="b" width="25.693" height="48.318" rx="12.847" transform="translate(357.287 816.687)"/><line class="a" y1="202.462" transform="translate(418.63 804.947)"/><rect class="b" width="25.693" height="51.479" rx="12.847" transform="translate(405.462 775.388)"/><line class="a" y1="235.517" transform="translate(466.805 771.892)"/><rect class="b" width="25.693" height="58.491" rx="12.847" transform="translate(453.637 755.069)"/><line class="a" x1="0.374" y1="248.758" transform="translate(514.607 758.651)"/><rect class="b" width="25.693" height="40.036" rx="12.847" transform="translate(501.813 748.761)"/><line class="a" x1="0.237" y1="223.309" transform="translate(562.919 784.099)"/><rect class="b" width="25.693" height="54.684" rx="12.847" transform="translate(549.988 762.077)"/><line class="a" x1="0.753" y1="173.049" transform="translate(610.578 834.359)"/><rect class="b" width="25.693" height="47.049" rx="12.847" transform="translate(597.829 813.591)"/><line class="a" y1="173.059" transform="translate(659.506 834.667)"/><rect class="b" width="25.693" height="50.849" rx="12.847" transform="translate(646.338 788.737)"/><line class="a" y1="393.155" transform="translate(1431.836 586.063)"/><rect class="b" width="25.654" height="143.485" rx="12.827" transform="translate(1418.689 542.445)"/><line class="a" x1="0.205" y1="348.846" transform="translate(1479.732 630.372)"/><rect class="b" width="25.654" height="69.909" rx="12.827" transform="translate(1466.789 568.115)"/><line class="a" y1="310.845" transform="translate(1528.037 668.373)"/><path class="b" d="M12.817,0C19.9.009,25.649,9.765,25.654,21.789l.018,39.7c.006,12.024-5.733,21.765-12.817,21.755S.024,73.48.018,61.456L0,21.755C-.006,9.731,5.733-.009,12.817,0Z" transform="translate(1515.59 596.831)"/><line class="a" y1="345.332" transform="translate(1576.138 633.886)"/><rect class="b" width="25.654" height="57.939" rx="12.827" transform="translate(1562.99 585.604)"/><line class="a" y1="411.548" transform="translate(1624.239 567.67)"/><rect class="b" width="25.654" height="78.171" rx="12.827" transform="translate(1611.091 507.432)"/><line class="a" y1="485.121" transform="translate(1672.339 494.097)"/><rect class="b" width="25.654" height="86.448" rx="12.827" transform="translate(1659.192 420.984)"/><line class="a" x1="0.19" y1="570.521" transform="translate(1720.25 408.697)"/><rect class="b" width="25.654" height="144.387" rx="12.827" transform="translate(1707.292 276.598)"/><line class="a" y1="722.393" x2="0.252" transform="translate(1768.54 256.825)"/><rect class="b" width="25.654" height="83.689" rx="12.827" transform="translate(1756.03 192.908)"/><line class="a" y1="807.002" x2="0.558" transform="translate(1816.641 172.216)"/><rect class="b" width="25.477" height="89.207" rx="12.738" transform="translate(1804.142 103.701)"/><line class="a" y1="893.45" x2="0.226" transform="translate(1864.741 85.768)"/><line class="a" y1="957.826" x2="0.531" transform="translate(1907.11 21.392)"/></g></svg>