<svg xmlns="http://www.w3.org/2000/svg" viewBox="0 0 698.827 384.123"><defs><style>.a,.c{fill:#3d3b3b;}.a,.b{stroke:#3d3b3b;stroke-width:3px;}.b{fill:#fff;}.d{fill:#dedede;}.e{fill:#1fd1bf;}.f{fill:#e6153f;}.g{stroke:none;}.h{fill:none;}</style></defs><g transform="translate(-319.022 224.123)"><g class="a" transform="translate(477.688 154.215)"><rect class="g" width="380.652" height="5.785" rx="2"/><rect class="h" x="1.5" y="1.5" width="377.652" height="2.785" rx="0.5"/></g><g transform="translate(-164 -164)"><g class="a" transform="translate(720.206 284.662)"><rect class="g" width="225.615" height="33.553"/><rect class="h" x="1.5" y="1.5" width="222.615" height="30.553"/></g><g class="b" transform="translate(483.022 -60.123)"><rect class="g" width="698.827" height="351.727" rx="10"/><rect class="h" x="1.5" y="1.5" width="695.827" height="348.727" rx="8.5"/></g><rect class="c" width="39.338" height="318.174" transform="translate(501.534 -42.768)"/><rect class="d" width="271.895" height="317.017" transform="translate(894.913 -42.768)"/><rect class="d" width="246.441" height="26.611" rx="13.305" transform="translate(569.797 231.44)"/><rect class="d" width="31.239" height="26.611" rx="13.305" transform="translate(834.749 231.44)"/><rect class="e" width="42.664" height="9.626" rx="4.813" transform="translate(911.932 100.835) rotate(-90)"/><rect class="e" width="32.873" height="9.626" rx="4.813" transform="translate(937.371 58.17) rotate(-90)"/><rect class="e" width="17.485" height="9.626" rx="4.813" transform="translate(962.811 24.598) rotate(-90)"/><rect class="f" width="23.081" height="9.626" rx="4.813" transform="translate(988.25 48.379) rotate(-90)"/><rect class="f" width="23.081" height="9.626" rx="4.813" transform="translate(1013.69 71.459) rotate(-90)"/><rect class="e" width="28.676" height="9.626" rx="4.813" transform="translate(1039.129 49.078) rotate(-90)"/><rect class="e" width="31.474" height="9.626" rx="4.813" transform="translate(1064.569 21.101) rotate(-90)"/><rect class="f" width="18.884" height="9.626" rx="4.813" transform="translate(1090.008 38.587) rotate(-90)"/><rect class="f" width="28.676" height="9.626" rx="4.813" transform="translate(1115.447 70.76) rotate(-90)"/><rect class="e" width="28.78" height="9.626" rx="4.813" transform="translate(1139.827 42.084) rotate(-90)"/><rect class="d" width="172.971" height="10.507" rx="5.253" transform="translate(569.797 16.616)"/><rect class="d" width="67.684" height="10.507" rx="5.253" transform="translate(569.797 51.326)"/><rect class="d" width="97.766" height="10.507" rx="5.253" transform="translate(569.797 86.036)"/><rect class="d" width="41.073" height="10.507" rx="5.253" transform="translate(569.797 120.746)"/><rect class="d" width="61.899" height="10.507" rx="5.253" transform="translate(569.797 155.456)"/><rect class="d" width="144.046" height="10.507" rx="5.253" transform="translate(569.797 190.166)"/><rect class="d" width="123.22" height="10.507" rx="5.253" transform="translate(569.797 -18.094)"/></g></g></svg>